PathFileType	4	(X/Y/Z)	P:\Projects\LMB_grand_challenge_database\project_only\opensim\experimental_data\SixthCompetition/DM_smooth1_new.trc
DataRate	CameraRate	NumFrames	NumMarkers	Units	OrigDataRate	OrigDataStartFrame	OrigNumFrames
120	120	4	68	mm	120	323	370
Frame#	Time	Sternum			Neck			R_Shoulder			L_Shoulder			Xiphoid			Thoracic			R_Asis			L_Asis			R_Psis			L_Psis			Lumbar			R_Elbow			R_ElbowMedial			R_ShoulderAnterior			R_ShoulderPosterior			R_Wrist			R_Radius			R_Ulna			L_Elbow			L_ElbowMedial			L_ShoulderAnterior			L_ShoulderPosterior			L_Wrist			L_Ulna			L_Radius			L_Thigh_Superior			L_Thigh_Inferior			L_Thigh_Lateral			L_Knee_Lateral			L_Knee_Medial			L_Patella			L_Shank_Superior			L_Shank_Inferior			L_Shank_Lateral			L_Ankle_Lateral			L_Ankle_Medial			R_Thigh_Superior			R_Thigh_Inferior			R_Thigh_Lateral			R_Knee_Lateral			R_Knee_Medial			R_Patella			R_Shank_Superior			R_Shank_Inferior			R_Shank_Lateral			R_Ankle_Lateral			RankleMedial			R_Heel			R_Toe			R_Midfoot_Medial			R_Midfoot_Lateral			R_Hindfoot			R_Midfoot_Superior			R_ToeMedial			R_ToeLateral			L_Heel			L_Toe			L_Midfoot_Medial			L_Midfoot_Lateral			L_Hindfoot			L_Midfoot_Superior			L_ToeMedial			L_ToeLateral			Oglobal			Sacral			Xglobal			Yglobal			Zglobal			
		X1	Y1	Z1	X2	Y2	Z2	X3	Y3	Z3	X4	Y4	Z4	X5	Y5	Z5	X6	Y6	Z6	X7	Y7	Z7	X8	Y8	Z8	X9	Y9	Z9	X10	Y10	Z10	X11	Y11	Z11	X12	Y12	Z12	X13	Y13	Z13	X14	Y14	Z14	X15	Y15	Z15	X16	Y16	Z16	X17	Y17	Z17	X18	Y18	Z18	X19	Y19	Z19	X20	Y20	Z20	X21	Y21	Z21	X22	Y22	Z22	X23	Y23	Z23	X24	Y24	Z24	X25	Y25	Z25	X26	Y26	Z26	X27	Y27	Z27	X28	Y28	Z28	X29	Y29	Z29	X30	Y30	Z30	X31	Y31	Z31	X32	Y32	Z32	X33	Y33	Z33	X34	Y34	Z34	X35	Y35	Z35	X36	Y36	Z36	X37	Y37	Z37	X38	Y38	Z38	X39	Y39	Z39	X40	Y40	Z40	X41	Y41	Z41	X42	Y42	Z42	X43	Y43	Z43	X44	Y44	Z44	X45	Y45	Z45	X46	Y46	Z46	X47	Y47	Z47	X48	Y48	Z48	X49	Y49	Z49	X50	Y50	Z50	X51	Y51	Z51	X52	Y52	Z52	X53	Y53	Z53	X54	Y54	Z54	X55	Y55	Z55	X56	Y56	Z56	X57	Y57	Z57	X58	Y58	Z58	X59	Y59	Z59	X60	Y60	Z60	X61	Y61	Z61	X62	Y62	Z62	X63	Y63	Z63	X64	Y64	Z64	X65	Y65	Z65	X66	Y66	Z66	X67	Y67	Z67	X68	Y68	Z68	

324	3.791667	1505.16	1355.49	193.651	1338.59	1418.6	198.487	1445.14	1371.44	370.662	1422.33	1379.86	20.8043	1533.5	1183.93	193.28	1259.39	1234.11	195.564	1457.31	939.046	317.291	1457.78	961.01	44.5256	1252.1	983.348	214.38	1250.02	983.557	134.283	1253.43	1032.38	181.305	1362.24	1062.92	461.256	-0	0	0	-0	0	0	-0	0	0	1396.22	784.454	456.967	1407.12	790.699	414.988	1349.52	794.8579999999999	459.053	1533.49	1063.9	-65.95359999999999	-0	0	0	-0	0	0	-0	0	0	1749.9	920.462	-2.70363	1716.22	895.0410000000001	-24.1481	1727.89	931.441	39.012	1350.65	782.885	17.828	1311.6	565.643	72.30249999999999	1384.25	641.881	87.7069	-0	0	0	-0	0	0	1311.27	461.164	135.036	1217.52	427.828	71.7388	1069.3	200.904	79.3206	1171.12	292.272	146.998	-0	0	0	-0	0	0	1415.6	766.543	349.501	1526.57	578.926	304.396	1534.32	721.087	322.392	-0	0	0	-0	0	0	1631.58	536.739	238.558	1568.89	384.698	313.587	1654.27	193.402	296.278	1665.86	336.176	232.065	-0	0	0	-0	0	0	1637.96	47.3533	238.374	1915.82	151.886	250.221	1855.46	106.32	193.275	1844.89	92.7508	309.278	1742.66	48.7062	293.275	1765.07	159.794	250.248	1889.75	129.19	205.869	1883.48	120.845	296.759	947.011	103.454	133.855	1235.69	46.3823	121.869	1155.98	28.1148	176.581	1141.69	31.8341	63.0549	1035.28	48.6852	73.72329999999999	1118.05	124.079	125.04	1197.88	31.6296	165.903	1194.48	32.8347	69.8554	-0	0	0	1251.06	983.452	174.332	-200	0	0	-0	0	200	-0	200	0	
325	3.8	1515.35	1355.05	195.106	1348.5	1417.44	199.931	1454.86	1370.64	372.343	1432.33	1379.32	22.1765	1544.45	1183.66	194.564	1270.17	1232.7	196.846	1470.09	938.5410000000001	317.458	1469.35	960.573	44.9646	1264.22	981.922	215.49	1261.78	982.325	135.384	1265.26	1031.04	182.472	1371.99	1061.79	462.441	-0	0	0	-0	0	0	-0	0	0	1405.68	783.247	457.772	1416.54	789.663	415.455	1359.09	793.73	459.516	1545.55	1063.71	-63.3781	-0	0	0	-0	0	0	-0	0	0	1761.42	919.563	-0.723581	1727.74	894.251	-22.1711	1739.67	930.383	41.0721	1361.33	782.102	18.056	1322.12	564.598	71.82769999999999	1394.98	640.947	86.5063	-0	0	0	-0	0	0	1322.21	459.428	133.924	1226.83	427.673	71.4115	1073.83	203.764	79.1763	1178.09	292.748	146.906	-0	0	0	-0	0	0	1427.7	764.855	348.283	1537.09	576.587	303.208	1546.31	718.422	322.706	-0	0	0	-0	0	0	1641.62	533.8200000000001	237.15	1577.43	382.52	312.385	1660.16	190.408	295.074	1673.62	332.977	230.822	-0	0	0	-0	0	0	1641.09	48.2344	237.185	1921.97	141.299	247.552	1860.71	98.15219999999999	191.497	1849.76	85.7071	307.59	1745.3	44.6098	292.268	1771.52	154.655	248.155	1894.96	118.909	203.844	1888.54	111.691	294.523	949.624	109.069	134.135	1235.93	45.8654	121.652	1156.87	28.8198	176.27	1142.09	32.1847	62.7974	1036.22	51.8712	74.0038	1121.41	125.406	124.295	1198.09	31.5628	165.799	1194.75	32.5722	69.6994	-0	0	0	1263	982.123	175.437	-200	0	0	-0	0	200	-0	200	0	
326	3.808333	1525.72	1354.88	196.821	1358.31	1416.38	201.624	1464.69	1369.78	374.083	1442.3	1379.01	24.0633	1555.64	1183.75	195.987	1281.03	1231.17	197.94	1482.59	938.346	317.809	1481	960.165	45.2086	1276.3	980.789	216.277	1273.69	981.367	136.373	1277.05	1030.02	183.29	1381.69	1060.57	463.297	-0	0	0	-0	0	0	-0	0	0	1415.33	781.884	458.477	1426.13	788.35	416.277	1368.76	792.619	460.139	1557.45	1063.67	-60.6884	-0	0	0	-0	0	0	-0	0	0	1772.61	918.374	1.18616	1738.88	893.01	-20.2173	1751.16	929.034	43.0102	1372.41	781.412	18.5279	1333.34	563.539	71.05119999999999	1406.23	639.712	85.1212	-0	0	0	-0	0	0	1333.95	457.247	133.002	1236.66	427.103	71.1495	1078.89	206.659	79.33629999999999	1185.23	293.111	146.622	-0	0	0	-0	0	0	1440.41	763.348	347.49	1548.24	574.782	302.396	1558.37	715.6420000000001	323.051	-0	0	0	-0	0	0	1651.41	531.08	235.57	1586.15	380.218	311.606	1666.88	187.764	294.345	1681.23	329.875	229.549	-0	0	0	-0	0	0	1644.12	49.1948	236.979	1928.22	130.655	244.489	1865.37	89.7979	189.881	1854.51	78.60299999999999	306.11	1748.87	40.7127	292.365	1777.89	149.564	246.503	1899.27	108.979	201.087	1893.85	102.323	291.831	952.669	115.212	134.578	1236.34	45.2994	121.514	1157.67	28.0426	173.854	1142.32	33.9917	60.5629	1037.19	56.8025	72.99120000000001	1125.14	126.63	123.907	1198.55	31.3906	165.809	1195.02	32.1958	69.74290000000001	-0	0	0	1275	981.078	176.325	-200	0	0	-0	0	200	-0	200	0	
327	3.816667	1536.05	1355.02	198.441	1368.12	1415.54	203.382	1474.48	1369.23	375.878	1452.06	1378.63	25.7575	1567.07	1184.02	197.396	1291.96	1229.92	199.114	1495.3	938.647	318.247	1492.72	959.741	45.5487	1288.52	979.859	217.194	1285.7	980.617	137.442	1288.98	1029.21	184.143	1391.76	1059.74	464.406	-0	0	0	-0	0	0	-0	0	0	1425.19	781.0170000000001	459.137	1436.11	787.498	416.929	1378.58	791.8	460.755	1569.37	1063.79	-57.9005	-0	0	0	-0	0	0	-0	0	0	1783.55	917.085	2.89785	1749.85	891.582	-18.2054	1762.61	927.619	44.8333	1383.89	780.831	18.802	1345.27	562.614	70.3479	1418.43	638.542	84.06	-0	0	0	-0	0	0	1346.35	454.982	131.935	1247.4	426.839	70.6887	1084.49	210.002	79.1853	1192.88	294.128	145.455	-0	0	0	-0	0	0	1453.21	762.311	346.878	1558	573.037	301.698	1570.08	713.064	323.209	-0	0	0	-0	0	0	1660.78	528.749	233.545	1594.85	378.168	311.107	1673.82	185.135	294.036	1688.96	327.054	228.612	-0	0	0	-0	0	0	1646.9	50.2789	237.228	1933.85	119.679	241.254	1868.74	81.99590000000001	186.258	1859.59	70.2183	302.577	1751.21	36.78	290.169	1784.21	144.372	244.986	1903.64	99.1123	198.271	1899.14	93.01739999999999	288.772	956.292	122.005	134.731	1237.1	44.9791	121.465	1158.54	29.1102	175.17	1143.11	33.5433	61.8187	1039.75	59.4809	73.6044	1129.42	127.794	123.519	1198.98	31.4709	165.818	1195.31	31.7318	69.7718	-0	0	0	1287.11	980.2380000000001	177.318	-200	0	0	-0	0	200	-0	200	0	
